<svg width="1823" height="249" viewBox="0 0 1823 249" fill="none" xmlns="http://www.w3.org/2000/svg">
<g clip-path="url(#clip0_360_31)">
<path d="M218.88 96.05C223.55 99.19 228.69 101.56 234.09 103.07V145.42C212.05 151.54 195.83 171.79 195.83 195.75C195.83 200.22 196.41 204.65 197.53 208.94L160.92 230.08C156.82 226.06 152.08 222.73 146.91 220.24V171.62C164.83 163.13 176.59 145.06 176.59 124.48C176.59 123.17 176.54 121.86 176.44 120.56L218.88 96.05ZM220.32 79.09L160.97 113.36C162.04 116.88 162.61 120.61 162.61 124.48C162.61 142.66 149.93 157.87 132.93 161.76V230.05C143.4 232.46 152.23 239.16 157.46 248.21L215 214.99C211.7 209.34 209.81 202.77 209.81 195.75C209.81 174.62 226.94 157.49 248.07 157.49V91.02C237.14 91.02 227.29 86.43 220.32 79.09Z" fill="#CE3936"/>
<path d="M161.39 19.1299L197.44 39.9399C196.39 44.1099 195.84 48.4199 195.84 52.7499C195.84 54.2099 195.9 55.6499 196.02 57.0999L153.9 81.4199C145.27 75.4999 134.95 72.2399 124.36 72.2399C113.83 72.2399 103.57 75.4699 94.9599 81.3199L52.7099 56.9299C52.8199 55.5499 52.8799 54.1599 52.8799 52.7599C52.8799 48.4299 52.3399 44.1199 51.2799 39.9499L87.2999 19.1599C96.9799 28.8899 110.26 34.5799 124.34 34.5799C138.42 34.5699 151.7 28.8699 161.39 19.1299ZM157.77 0.919922C151.24 12.6599 138.71 20.5999 124.33 20.5999C109.95 20.5999 97.4399 12.6699 90.8999 0.939922L33.8999 33.8499C37.0799 39.4299 38.9099 45.8799 38.9099 52.7599C38.9099 56.7099 38.3099 60.5199 37.1999 64.1099L96.4599 98.3199C103.44 90.8699 113.36 86.2199 124.37 86.2199C135.44 86.2199 145.41 90.9299 152.39 98.4399L211.59 64.2699C210.45 60.6399 209.83 56.7799 209.83 52.7699C209.83 45.8899 211.65 39.4399 214.84 33.8599L157.77 0.919922Z" fill="#CE3936"/>
<path d="M29.9701 95.95L72.2801 120.38C72.1701 121.74 72.1201 123.1 72.1201 124.47C72.1201 145.02 83.8601 163.08 101.74 171.58V220.23C96.5801 222.71 91.8401 226.04 87.7501 230.05L51.1701 208.93C52.2901 204.64 52.8701 200.21 52.8701 195.74C52.8701 171.78 36.6501 151.53 14.6101 145.41V103.06C20.0701 101.55 25.2701 99.14 29.9701 95.95ZM28.5001 78.97C21.5201 86.38 11.6301 91.02 0.640137 91.02V157.49C21.7701 157.49 38.9001 174.62 38.9001 195.75C38.9001 202.77 37.0001 209.33 33.7101 214.99L91.2001 248.18C96.4301 239.14 105.25 232.45 115.71 230.04V161.73C98.7401 157.81 86.0901 142.62 86.0901 124.46C86.0901 120.54 86.6801 116.75 87.7801 113.18L28.5001 78.97Z" fill="#CE3936"/>
<path d="M498.39 177.5V144.88C498.39 128.55 485.11 115.27 468.78 115.27H343.22C342.69 115.27 342.18 115.32 341.67 115.4H337.19C332.35 115.4 328.42 111.46 328.42 106.63V74C328.42 69.16 332.36 65.23 337.19 65.23H486.33C492.08 65.23 496.75 60.57 496.75 54.81C496.75 49.06 492.08 44.39 486.33 44.39H337.19C320.86 44.39 307.58 57.67 307.58 74V106.62C307.58 122.95 320.86 136.23 337.19 136.23H462.75C463.28 136.23 463.79 136.18 464.3 136.1H468.78C473.62 136.1 477.55 140.04 477.55 144.87V177.49C477.55 182.33 473.61 186.26 468.78 186.26H319.64C313.89 186.26 309.22 190.92 309.22 196.68C309.22 202.43 313.89 207.1 319.64 207.1H468.78C485.11 207.11 498.39 193.83 498.39 177.5Z" fill="#CE3935"/>
<path d="M710.7 177.32V75.24C710.7 58.91 697.42 45.63 681.09 45.63H550.05C533.72 45.63 520.44 58.91 520.44 75.24V177.32C520.44 193.65 533.72 206.93 550.05 206.93H681.1C697.42 206.93 710.7 193.65 710.7 177.32ZM541.27 75.24C541.27 70.4 545.21 66.47 550.04 66.47H681.09C685.93 66.47 689.86 70.41 689.86 75.24V177.32C689.86 182.16 685.92 186.09 681.09 186.09H550.05C545.21 186.09 541.28 182.15 541.28 177.32V75.24H541.27Z" fill="#CE3935"/>
<path d="M1823 177.32V75.24C1823 58.91 1809.72 45.63 1793.39 45.63H1662.34C1646.01 45.63 1632.73 58.91 1632.73 75.24V177.32C1632.73 193.65 1646.01 206.93 1662.34 206.93H1793.39C1809.72 206.93 1823 193.65 1823 177.32ZM1653.57 75.24C1653.57 70.4 1657.51 66.47 1662.34 66.47H1793.39C1798.23 66.47 1802.16 70.41 1802.16 75.24V177.32C1802.16 182.16 1798.22 186.09 1793.39 186.09H1662.34C1657.5 186.09 1653.57 182.15 1653.57 177.32V75.24Z" fill="#CE3935"/>
<path d="M756.76 196.51V152H849.42C855.17 152 859.84 147.34 859.84 141.58C859.84 135.83 855.17 131.16 849.42 131.16H756.76V75.23C756.76 70.39 760.7 66.46 765.53 66.46H893.29C899.04 66.46 903.71 61.8 903.71 56.04C903.71 50.29 899.04 45.62 893.29 45.62H765.53C749.2 45.62 735.92 58.9 735.92 75.23V196.5C735.92 202.25 740.59 206.92 746.34 206.92C752.09 206.93 756.76 202.27 756.76 196.51Z" fill="#CE3935"/>
<path d="M933.86 66.47H1006.51V194.32C1006.51 200.07 1011.18 204.74 1016.93 204.74C1022.68 204.74 1027.35 200.07 1027.35 194.32V66.47H1100C1105.75 66.47 1110.42 61.81 1110.42 56.05C1110.42 50.3 1105.76 45.63 1100 45.63H933.86C928.11 45.63 923.44 50.29 923.44 56.05C923.45 61.81 928.11 66.47 933.86 66.47Z" fill="#CE3935"/>
<path d="M1218.44 204.19C1224.19 204.19 1228.86 199.53 1228.86 193.77V152H1368.13C1384.46 152 1397.74 138.72 1397.74 122.39V75.24C1397.74 58.91 1384.46 45.63 1368.13 45.63H1237.63C1221.3 45.63 1208.02 58.91 1208.02 75.24V193.77C1208.02 199.53 1212.68 204.19 1218.44 204.19ZM1237.63 66.47H1368.13C1372.97 66.47 1376.9 70.41 1376.9 75.24V122.39C1376.9 127.23 1372.96 131.16 1368.13 131.16H1228.86V75.23C1228.86 70.41 1232.79 66.47 1237.63 66.47Z" fill="#CE3935"/>
<path d="M1430.64 204.19C1436.39 204.19 1441.06 199.53 1441.06 193.77V152H1523.95C1524.57 153.18 1525.42 154.26 1526.51 155.17L1581.89 201.23C1583.83 202.85 1586.2 203.64 1588.55 203.64C1591.54 203.64 1594.5 202.36 1596.57 199.88C1600.25 195.46 1599.64 188.89 1595.22 185.21L1555.29 152H1580.33C1596.66 152 1609.94 138.72 1609.94 122.39V75.24C1609.94 58.91 1596.66 45.63 1580.33 45.63H1449.83C1433.5 45.63 1420.22 58.91 1420.22 75.24V193.77C1420.22 199.53 1424.88 204.19 1430.64 204.19ZM1449.83 66.47H1580.33C1585.17 66.47 1589.1 70.41 1589.1 75.24V122.39C1589.1 127.23 1585.17 131.16 1580.33 131.16H1441.06V75.23C1441.05 70.41 1444.99 66.47 1449.83 66.47Z" fill="#CE3935"/>
</g>
<defs>
<clipPath id="clip0_360_31">
<rect width="1823" height="249" fill="white"/>
</clipPath>
</defs>
</svg>
